{
	"asset":{
		"generator":"Khronos glTF Blender I/O v4.1.62",
		"version":"2.0"
	},
	"scene":0,
	"scenes":[
		{
			"name":"Scene",
			"nodes":[
				0
			]
		}
	],
	"nodes":[
		{
			"mesh":0,
			"name":"Plane"
		}
	],
	"materials":[
		{
			"doubleSided":true,
			"name":"Material",
			"extras":{
				"shader":{
					"vertex": "shaders/ShaderToy.vert.glsl",
					"fragment": "shaders/ShaderToy.frag.glsl",
					"uniforms": [
						{
							"name": "iResolution",
							"value": [
								800.0,
								600.0,
								0.0
							],
							"type": "Vector3"
						},
						{
							"name": "iTime",
							"value": [
								0.0
							],
							"type": "Float"
						},
						{
							"name": "iTimeDelta",
							"value": [
								16.6
							],
							"type": "Float"
						},
						{
							"name": "iFrameRate",
							"value": [
								60.0
							],
							"type": "Float"
						},
						{
							"name": "iFrame",
							"value": [
								0
							],
							"type": "Int"
						},
						{
							"name": "iDate",
							"value": [
								2024.0,
								4.0,
								26.0,
								0.0
							],
							"type": "Vector4"
						}
					]
				}
			}
		}
	],
	"meshes":[
		{
			"name":"Plane",
			"primitives":[
				{
					"attributes":{
						"POSITION":0,
						"NORMAL":1,
						"TEXCOORD_0":2
					},
					"indices":3,
					"material":0
				}
			]
		}
	],
	"accessors":[
		{
			"bufferView":0,
			"componentType":5126,
			"count":4,
			"max":[
				1,
				1,
				0
			],
			"min":[
				-1,
				-1,
				0
			],
			"type":"VEC3"
		},
		{
			"bufferView":1,
			"componentType":5126,
			"count":4,
			"type":"VEC3"
		},
		{
			"bufferView":2,
			"componentType":5126,
			"count":4,
			"type":"VEC2"
		},
		{
			"bufferView":3,
			"componentType":5123,
			"count":6,
			"type":"SCALAR"
		}
	],
	"bufferViews":[
		{
			"buffer":0,
			"byteLength":48,
			"byteOffset":0,
			"target":34962
		},
		{
			"buffer":0,
			"byteLength":48,
			"byteOffset":48,
			"target":34962
		},
		{
			"buffer":0,
			"byteLength":32,
			"byteOffset":96,
			"target":34962
		},
		{
			"buffer":0,
			"byteLength":12,
			"byteOffset":128,
			"target":34963
		}
	],
	"buffers":[
		{
			"byteLength":140,
			"uri":"buffers/shadertoy.bin"
		}
	]
}
